<svg width="16" height="18" viewBox="0 0 16 18" fill="none" xmlns="http://www.w3.org/2000/svg">
<path d="M5.74465 16.875C5.74465 16.7528 5.74248 16.5035 5.73966 16.1795C5.73624 15.7864 5.73186 15.2835 5.72924 14.7642C2.57507 15.45 1.90951 13.4265 1.90951 13.4265C1.39374 12.116 0.65059 11.7674 0.65059 11.7674C-0.378035 11.0638 0.728182 11.0783 0.728182 11.0783C1.86664 11.1582 2.46612 12.2466 2.46612 12.2466C3.47738 13.9799 5.11851 13.4788 5.76546 13.1891C5.86724 12.4564 6.16104 11.9561 6.48531 11.673C3.96703 11.3864 1.31978 10.4142 1.31978 6.06992C1.31978 4.83208 1.76265 3.82064 2.48791 3.02665C2.37019 2.74108 1.98214 1.58801 2.59774 0.0262479C2.59774 0.0262479 3.54984 -0.278451 5.71648 1.18845C6.62083 0.937246 7.59073 0.811291 8.55426 0.806951C9.51778 0.811291 10.4885 0.937157 11.3945 1.18845C13.5585 -0.278362 14.5093 0.0263366 14.5093 0.0263366C15.1264 1.58792 14.7381 2.74117 14.6204 3.02665C15.3474 3.82064 15.7872 4.83208 15.7872 6.06992C15.7872 10.4246 13.1349 11.3834 10.6103 11.6641C11.0169 12.0159 11.3793 12.7059 11.3793 13.7637C11.3793 14.7776 11.3734 15.6592 11.3695 16.244C11.3676 16.5341 11.3662 16.7511 11.3662 16.875C11.3662 17.8939 11.3533 18 8.55417 18C5.76371 18 5.74465 17.8959 5.74465 16.875Z" fill="#808080"/>
</svg>
