<svg width="22" height="22" viewBox="0 0 22 22" fill="none" xmlns="http://www.w3.org/2000/svg">
<g clip-path="url(#clip0_527_5)">
<path d="M14.6014 6.29377C17.9215 -1.39503 3.62333 -1.45663 7.03963 6.25947C0.144821 1.04307 -3.6657 13.7299 5.07217 13.2791C2.17522 14.3053 1.21535 18.0391 3.27251 20.2497C5.86711 22.7571 10.8776 21.1597 10.8625 17.3524C10.9196 21.159 15.8896 22.8026 18.4864 20.3183C20.5428 18.1329 19.5352 14.3816 16.6368 13.3309C19.1193 13.5073 21.8571 12.1535 21.7002 9.30797C21.9012 5.55317 17.1468 3.78427 14.6014 6.29377ZM10.8726 14.2038C9.39408 14.1975 8.19046 12.9928 8.18395 11.5137C8.17744 10.0346 9.37021 8.84037 10.8487 8.84667C12.3272 8.85297 13.5301 10.0584 13.5366 11.5375C13.5431 13.0166 12.3503 14.2108 10.8726 14.2038Z" fill="white"/>
</g>
<defs>
<clipPath id="clip0_527_5">
<rect width="21.7" height="21" fill="white" transform="translate(0 0.5)"/>
</clipPath>
</defs>
</svg>
